<?xml version="1.0" encoding="iso-8859-1"?>
<!-- Generator: Adobe Illustrator 19.0.0, SVG Export Plug-In . SVG Version: 6.00 Build 0)  -->
<svg fill="#fff" version="1.1" id="Capa_1" xmlns="http://www.w3.org/2000/svg" xmlns:xlink="http://www.w3.org/1999/xlink" x="0px" y="0px"
	 viewBox="0 0 512 512" style="enable-background:new 0 0 512 512;" xml:space="preserve">
<g>
	<g>
		<path d="M76.573,260.63V62.998C76.573,44.803,91.376,30,109.571,30c17.623,0,32.063,13.887,32.953,31.293h-17.956v30h66v-30
			h-18.043C171.616,27.343,143.736,0,109.571,0C74.834,0,46.573,28.261,46.573,62.998V260.63H0v62.36h512v-62.36H76.573z"/>
	</g>
</g>
<g>
	<g>
		<path d="M19.765,352.99v63.73c0,40.318,31.857,73.327,71.705,75.19V512h30v-20H390.9v20h30v-20.1
			c39.688-2.063,71.335-34.991,71.335-75.18v-63.73H19.765z"/>
	</g>
</g>
<g>
	<g>
		<rect x="142.57" y="122" width="30" height="35"/>
	</g>
</g>
<g>
	<g>
		<rect x="142.57" y="178" width="30" height="35"/>
	</g>
</g>
<g>
	<g>
		<rect x="96.57" y="122" width="30" height="35"/>
	</g>
</g>
<g>
	<g>
		<rect x="96.57" y="178" width="30" height="35"/>
	</g>
</g>
<g>
	<g>
		<rect x="188.67" y="122" width="30" height="35"/>
	</g>
</g>
<g>
	<g>
		<rect x="188.67" y="178" width="30" height="35"/>
	</g>
</g>
<g>
</g>
<g>
</g>
<g>
</g>
<g>
</g>
<g>
</g>
<g>
</g>
<g>
</g>
<g>
</g>
<g>
</g>
<g>
</g>
<g>
</g>
<g>
</g>
<g>
</g>
<g>
</g>
<g>
</g>
</svg>
