<?xml version="1.0" encoding="iso-8859-1"?>
<!-- Generator: Adobe Illustrator 19.0.0, SVG Export Plug-In . SVG Version: 6.00 Build 0)  -->
<svg fill="#fff" version="1.1" id="Capa_1" xmlns="http://www.w3.org/2000/svg" xmlns:xlink="http://www.w3.org/1999/xlink" x="0px" y="0px"
	 viewBox="0 0 512 512" style="enable-background:new 0 0 512 512;" xml:space="preserve">
<g>
	<g>
		<g>
			<path d="M464,0H48c-8.837,0-16,7.163-16,16v480c0,8.837,7.163,16,16,16h416c8.837,0,16-7.163,16-16V16C480,7.163,472.837,0,464,0
				z M448,480H64V32h384V480z"/>
			<path d="M112,448h288c8.837,0,16-7.163,16-16V80c0-8.837-7.163-16-16-16H112c-8.837,0-16,7.163-16,16v352
				C96,440.837,103.163,448,112,448z M272,96h112v144H272V96z M272,272h112v144H272V272z M128,96h112v144H128V96z M128,272h112v144
				H128V272z"/>
		</g>
	</g>
</g>
<g>
</g>
<g>
</g>
<g>
</g>
<g>
</g>
<g>
</g>
<g>
</g>
<g>
</g>
<g>
</g>
<g>
</g>
<g>
</g>
<g>
</g>
<g>
</g>
<g>
</g>
<g>
</g>
<g>
</g>
</svg>
