<?xml version="1.0" encoding="iso-8859-1"?>
<!-- Generator: Adobe Illustrator 19.0.0, SVG Export Plug-In . SVG Version: 6.00 Build 0)  -->
<svg fill="#368aaf" version="1.1" id="Capa_1" xmlns="http://www.w3.org/2000/svg" xmlns:xlink="http://www.w3.org/1999/xlink" x="0px" y="0px"
	 viewBox="0 0 512 512" style="enable-background:new 0 0 512 512;" xml:space="preserve">
<g>
	<g>
		<path d="M164.48,46.747h-59.179c-5.523,0-10,4.478-10,10v59.179c0,5.522,4.477,10,10,10h59.179c5.523,0,10-4.478,10-10V56.747
			C174.48,51.225,170.003,46.747,164.48,46.747z M154.48,105.926h-39.179V66.747h39.179V105.926z"/>
	</g>
</g>
<g>
	<g>
		<path d="M304.563,46.747h-59.179c-5.523,0-10,4.478-10,10v59.179c0,5.522,4.477,10,10,10h59.179c5.523,0,10-4.478,10-10V56.747
			C314.563,51.225,310.086,46.747,304.563,46.747z M294.563,105.926h-39.179V66.747h39.179V105.926z"/>
	</g>
</g>
<g>
	<g>
		<path d="M164.48,146.498h-59.179c-5.523,0-10,4.478-10,10v59.179c0,5.522,4.477,10,10,10h59.179c5.523,0,10-4.478,10-10v-59.179
			C174.48,150.976,170.003,146.498,164.48,146.498z M154.48,205.677h-39.179v-39.179h39.179V205.677z"/>
	</g>
</g>
<g>
	<g>
		<path d="M304.563,146.498h-59.179c-5.523,0-10,4.478-10,10v59.179c0,5.522,4.477,10,10,10h59.179c5.523,0,10-4.478,10-10v-59.179
			C314.563,150.976,310.086,146.498,304.563,146.498z M294.563,205.677h-39.179v-39.179h39.179V205.677z"/>
	</g>
</g>
<g>
	<g>
		<path d="M164.48,246.249h-59.179c-5.523,0-10,4.478-10,10v59.179c0,5.522,4.477,10,10,10h59.179c5.523,0,10-4.478,10-10v-59.179
			C174.48,250.727,170.003,246.249,164.48,246.249z M154.48,305.428h-39.179v-39.179h39.179V305.428z"/>
	</g>
</g>
<g>
	<g>
		<path d="M164.48,346h-59.179c-5.523,0-10,4.478-10,10v59.179c0,5.522,4.477,10,10,10h59.179c5.523,0,10-4.478,10-10V356
			C174.48,350.478,170.003,346,164.48,346z M154.48,405.179h-39.179V366h39.179V405.179z"/>
	</g>
</g>
<g>
	<g>
		<path d="M214.74,65.15c-0.13-0.64-0.32-1.269-0.57-1.869c-0.25-0.601-0.56-1.181-0.92-1.73c-0.37-0.54-0.79-1.06-1.25-1.52
			c-0.46-0.461-0.97-0.881-1.52-1.24c-0.54-0.36-1.12-0.67-1.72-0.92c-0.61-0.25-1.24-0.44-1.87-0.57c-1.29-0.26-2.62-0.26-3.91,0
			c-0.64,0.13-1.27,0.32-1.87,0.57c-0.61,0.25-1.19,0.56-1.73,0.92c-0.55,0.359-1.06,0.779-1.52,1.24
			c-0.46,0.46-0.88,0.979-1.24,1.52c-0.36,0.55-0.67,1.13-0.92,1.73s-0.44,1.23-0.57,1.869c-0.13,0.65-0.2,1.301-0.2,1.96
			c0,0.65,0.07,1.301,0.2,1.95c0.13,0.64,0.32,1.27,0.57,1.87c0.25,0.601,0.56,1.18,0.92,1.73c0.36,0.54,0.78,1.06,1.24,1.52
			c0.46,0.46,0.97,0.88,1.52,1.24c0.54,0.36,1.12,0.67,1.73,0.92c0.6,0.25,1.23,0.44,1.87,0.57c0.64,0.13,1.3,0.199,1.95,0.199
			c0.65,0,1.31-0.069,1.96-0.199c0.63-0.13,1.26-0.32,1.87-0.57c0.6-0.25,1.18-0.56,1.72-0.92c0.55-0.36,1.06-0.78,1.52-1.24
			s0.88-0.979,1.25-1.52c0.36-0.551,0.67-1.13,0.92-1.73c0.25-0.6,0.44-1.229,0.57-1.87c0.13-0.649,0.19-1.3,0.19-1.95
			C214.93,66.451,214.87,65.8,214.74,65.15z"/>
	</g>
</g>
<g>
	<g>
		<path d="M483.379,273.578c-2.868-1.838-6.475-2.093-9.57-0.67c-8.182,3.755-16.93,5.659-26.002,5.659
			c-21.42,0-41.1-10.812-52.645-28.922c-1.837-2.88-5.017-4.624-8.433-4.624h-21.772c-3.361,0-6.486,1.695-8.336,4.492V10
			c0-5.523-4.478-10-10-10H63.243c-5.523,0-10,4.477-10,10v441.28H34.021c-5.523,0-10,4.478-10,10V502c0,5.522,4.477,10,10,10
			h341.822c0.331,0,0.658-0.02,0.982-0.052c0.091-0.009,0.182-0.024,0.273-0.036c0.239-0.03,0.477-0.067,0.711-0.114
			c0.1-0.02,0.199-0.042,0.298-0.065c0.236-0.055,0.468-0.118,0.697-0.189c0.087-0.027,0.173-0.052,0.26-0.081
			c0.305-0.104,0.606-0.219,0.898-0.351c0.006-0.003,0.012-0.005,0.018-0.007c0.001,0,0.005-0.002,0.006-0.003
			c0.005-0.002,0.01-0.005,0.015-0.007c1.265-0.576,26.851-12.31,52.817-31.316c36.603-26.791,55.162-54.009,55.162-80.895V281.996
			C487.981,278.59,486.246,275.417,483.379,273.578z M73.243,20h263.378v249.287c-4.258,2.638-8.779,4.731-13.487,6.258
			c-0.299,0.097-0.602,0.186-0.903,0.278c-0.331,0.102-0.661,0.205-0.994,0.301c-0.386,0.111-0.775,0.215-1.163,0.319
			c-0.254,0.068-0.508,0.137-0.764,0.202c-0.415,0.105-0.833,0.204-1.251,0.301c-0.236,0.055-0.473,0.11-0.71,0.162
			c-0.425,0.093-0.851,0.181-1.279,0.266c-0.238,0.047-0.476,0.093-0.715,0.137c-0.264,0.049-0.529,0.094-0.794,0.139v-21.401
			c0-5.522-4.477-10-10-10h-59.179c-5.523,0-10,4.478-10,10v59.179c0,5.522,4.477,10,10,10h18.324V346h-18.324
			c-5.523,0-10,4.478-10,10v59.179c0,5.522,4.477,10,10,10h24.201c3.867,8.7,9.638,17.409,17.301,26.102h-71.953V100.105
			c0-5.522-4.477-10-10-10c-5.523,0-10,4.478-10,10V451.28H73.243V20z M263.708,398.883c0,0.982,0.032,1.964,0.082,2.947
			c0.004,0.069,0.003,0.138,0.007,0.208c0.011,0.208,0.033,0.417,0.047,0.625c0.05,0.771,0.114,1.541,0.194,2.312
			c0.007,0.068,0.01,0.136,0.017,0.204h-8.671V366h8.324L263.708,398.883L263.708,398.883z M263.708,281.997v23.432h-8.324V266.25
			h39.179v11.617c-0.159-0.025-0.32-0.04-0.479-0.065c-0.218-0.034-0.434-0.072-0.651-0.109c-0.865-0.145-1.725-0.307-2.582-0.489
			c-0.136-0.029-0.273-0.054-0.409-0.083c-0.951-0.209-1.895-0.444-2.834-0.698c-0.225-0.061-0.45-0.125-0.674-0.188
			c-0.881-0.249-1.758-0.513-2.629-0.801c-0.079-0.026-0.158-0.049-0.237-0.075c-0.932-0.313-1.856-0.654-2.775-1.012
			c-0.22-0.086-0.44-0.173-0.659-0.262c-0.924-0.372-1.844-0.758-2.754-1.176c-3.096-1.421-6.702-1.167-9.57,0.67
			C265.443,275.418,263.708,278.591,263.708,281.997z M44.021,491.999V471.28h19.222h244.65c3.461,2.837,7.111,5.67,10.975,8.498
			c1.078,0.789,2.155,1.561,3.23,2.325c0.327,0.232,0.652,0.463,0.979,0.693c0.863,0.607,1.723,1.207,2.581,1.798
			c0.472,0.325,0.942,0.645,1.413,0.965c0.675,0.459,1.348,0.914,2.019,1.363c0.509,0.341,1.016,0.678,1.523,1.012
			c0.504,0.333,1.005,0.66,1.506,0.987c0.948,0.618,1.887,1.224,2.821,1.82c0.335,0.213,0.67,0.428,1.003,0.638
			c0.323,0.204,0.653,0.418,0.974,0.62H44.021z M375.89,490.925c-7.729-3.827-25.314-13.038-43.131-25.799
			c-14.744-10.636-29.045-23.264-38.365-36.756c-0.176-0.255-0.354-0.509-0.527-0.766c-0.114-0.169-0.223-0.339-0.336-0.508
			c-3.858-5.827-6.912-12.001-8.535-18.35c-0.003-0.01-0.005-0.02-0.008-0.03c-0.153-0.602-0.292-1.207-0.419-1.812
			c-0.014-0.064-0.028-0.129-0.041-0.193c-0.113-0.549-0.211-1.1-0.302-1.652c-0.007-0.043-0.015-0.087-0.022-0.13
			c-0.023-0.146-0.044-0.29-0.065-0.436c-0.064-0.431-0.121-0.862-0.171-1.293c-0.001-0.01-0.002-0.019-0.004-0.029
			c-0.024-0.21-0.047-0.42-0.068-0.63c-0.041-0.415-0.073-0.83-0.1-1.246c-0.013-0.199-0.029-0.4-0.039-0.598
			c-0.03-0.604-0.049-1.208-0.049-1.814V356v-40.572v-19.343c6.546,1.65,13.291,2.482,20.174,2.482c0.206,0,0.412-0.004,0.617-0.009
			l0.06-0.001c0.76-0.006,1.518-0.021,2.275-0.048c0.31-0.011,0.62-0.027,0.93-0.041c0.69-0.032,1.379-0.072,2.065-0.121
			c0.336-0.024,0.672-0.046,1.007-0.074c0.817-0.068,1.63-0.148,2.442-0.24c0.336-0.038,0.671-0.08,1.006-0.122
			c0.729-0.091,1.456-0.191,2.18-0.302c0.403-0.061,0.804-0.129,1.205-0.197c0.566-0.095,1.129-0.196,1.692-0.303
			c0.395-0.075,0.79-0.148,1.183-0.229c0.8-0.164,1.597-0.339,2.39-0.526c0.3-0.071,0.599-0.146,0.898-0.221
			c0.737-0.183,1.471-0.374,2.201-0.577c0.294-0.082,0.587-0.167,0.88-0.252c0.748-0.216,1.491-0.444,2.231-0.681
			c0.171-0.055,0.344-0.108,0.514-0.164c16.087-5.277,30.277-15.453,40.564-29.439h11.244
			c15.523,21.105,39.929,33.546,66.341,33.546c6.883,0,13.628-0.832,20.174-2.482v102.799h0
			C467.981,438.054,405.058,476.763,375.89,490.925z"/>
	</g>
</g>
<g>
	<g>
		<path d="M443.421,313.471c-22.578-0.998-44.193-9.863-60.865-24.958c-3.809-3.451-9.614-3.451-13.425,0
			c-16.67,15.096-38.285,23.96-60.864,24.958c-5.347,0.236-9.559,4.64-9.559,9.99v75.422c0,14.288,14.571,33.25,39.977,52.023
			c9.642,7.124,20.518,14.035,32.331,20.542c1.502,0.827,3.164,1.241,4.825,1.241s3.323-0.414,4.825-1.241
			c11.471-6.319,22.062-13.019,31.479-19.912c25.951-18.995,40.835-38.186,40.835-52.653v-75.422
			C452.98,318.111,448.767,313.707,443.421,313.471z M432.981,398.883c0,3.273-5.998,17.008-32.648,36.515
			c-8.704,6.371-17.533,11.814-24.492,15.816c-7.179-4.129-16.308-9.771-25.271-16.394c-26.009-19.219-31.862-32.723-31.862-35.938
			v-66.248c20.817-2.642,40.608-10.836,57.136-23.667c16.528,12.83,36.319,21.025,57.137,23.667V398.883z"/>
	</g>
</g>
<g>
	<g>
		<path d="M419.534,348.256c-4.275-3.495-10.575-2.861-14.07,1.416L373.22,389.13l-19.491-10.023
			c-4.912-2.527-10.94-0.593-13.466,4.319c-2.526,4.911-0.592,10.94,4.319,13.466l26.688,13.725
			c1.453,0.748,3.019,1.108,4.568,1.108c2.926,0,5.797-1.285,7.748-3.674l37.364-45.724
			C424.444,358.05,423.811,351.75,419.534,348.256z"/>
	</g>
</g>
<g>
</g>
<g>
</g>
<g>
</g>
<g>
</g>
<g>
</g>
<g>
</g>
<g>
</g>
<g>
</g>
<g>
</g>
<g>
</g>
<g>
</g>
<g>
</g>
<g>
</g>
<g>
</g>
<g>
</g>
</svg>
