<?xml version="1.0" encoding="iso-8859-1"?>
<!-- Generator: Adobe Illustrator 19.0.0, SVG Export Plug-In . SVG Version: 6.00 Build 0)  -->
<svg fill="#368aaf" version="1.1" id="Capa_1" xmlns="http://www.w3.org/2000/svg" xmlns:xlink="http://www.w3.org/1999/xlink" x="0px" y="0px"
	 viewBox="0 0 512 512" style="enable-background:new 0 0 512 512;" xml:space="preserve">
<g>
	<g>
		<path d="M368.837,430.048V384.71c0-5.523-4.478-10-10-10H68.663c-5.523,0-10,4.477-10,10v45.339
			c-31.722,5.41-55.952,33.08-55.952,66.319V502c0,5.523,4.477,10,10,10h402.077c5.522,0,10-4.477,10-10v-5.632
			C424.788,463.128,400.558,435.458,368.837,430.048z M78.663,394.71h270.174v34.363H78.663V394.71z M22.911,492
			c2.211-24.039,22.489-42.927,47.095-42.927h287.487c24.607,0,44.884,18.888,47.095,42.927H22.911z"/>
	</g>
</g>
<g>
	<g>
		<path d="M277.43,97.54c-0.119-0.64-0.319-1.27-0.569-1.87c-0.25-0.61-0.55-1.19-0.91-1.73c-0.37-0.55-0.79-1.06-1.25-1.52
			c-0.46-0.46-0.97-0.88-1.521-1.24c-0.54-0.36-1.119-0.67-1.72-0.92c-0.61-0.25-1.24-0.45-1.88-0.57c-1.29-0.26-2.61-0.26-3.9,0
			c-0.64,0.12-1.27,0.32-1.869,0.57c-0.61,0.25-1.19,0.56-1.73,0.92c-0.55,0.36-1.06,0.78-1.52,1.24
			c-0.461,0.46-0.881,0.97-1.24,1.52c-0.36,0.54-0.67,1.12-0.92,1.73c-0.25,0.6-0.44,1.23-0.57,1.87c-0.13,0.64-0.2,1.3-0.2,1.95
			c0,0.65,0.07,1.31,0.2,1.95s0.32,1.27,0.57,1.87c0.25,0.61,0.56,1.19,0.92,1.73c0.359,0.55,0.779,1.06,1.24,1.52
			c0.46,0.46,0.97,0.88,1.52,1.25c0.54,0.35,1.12,0.66,1.73,0.91c0.6,0.25,1.229,0.45,1.869,0.57c0.641,0.13,1.301,0.2,1.95,0.2
			c0.65,0,1.311-0.07,1.95-0.2c0.64-0.12,1.27-0.32,1.88-0.57c0.601-0.25,1.18-0.56,1.72-0.91c0.551-0.37,1.061-0.79,1.521-1.25
			c0.46-0.46,0.88-0.97,1.25-1.52c0.36-0.54,0.66-1.12,0.91-1.73c0.25-0.6,0.45-1.23,0.569-1.87c0.131-0.64,0.2-1.3,0.2-1.95
			S277.561,98.18,277.43,97.54z"/>
	</g>
</g>
<g>
	<g>
		<path d="M243.992,219.7c-0.131-0.64-0.321-1.271-0.571-1.87c-0.25-0.61-0.56-1.191-0.92-1.73c-0.36-0.55-0.78-1.06-1.24-1.52
			c-0.46-0.461-0.97-0.88-1.52-1.24c-0.54-0.36-1.12-0.67-1.73-0.92c-0.6-0.25-1.229-0.45-1.87-0.57c-1.29-0.26-2.619-0.26-3.909,0
			c-0.631,0.12-1.261,0.32-1.87,0.57c-0.601,0.25-1.181,0.56-1.721,0.92c-0.55,0.36-1.06,0.78-1.52,1.24
			c-0.46,0.46-0.88,0.97-1.25,1.52c-0.36,0.54-0.67,1.12-0.92,1.73c-0.25,0.6-0.44,1.23-0.57,1.87c-0.13,0.64-0.189,1.3-0.189,1.95
			c0,0.65,0.06,1.31,0.189,1.95c0.13,0.64,0.32,1.27,0.57,1.88c0.25,0.6,0.56,1.18,0.92,1.72c0.37,0.55,0.79,1.06,1.25,1.52
			c0.46,0.46,0.97,0.88,1.52,1.24c0.54,0.36,1.12,0.67,1.721,0.92c0.609,0.25,1.239,0.45,1.87,0.58c0.649,0.12,1.31,0.19,1.96,0.19
			c0.649,0,1.31-0.07,1.949-0.19c0.641-0.13,1.271-0.33,1.87-0.58c0.61-0.25,1.19-0.56,1.73-0.92c0.55-0.36,1.06-0.78,1.52-1.24
			c1.86-1.86,2.931-4.44,2.931-7.07C244.192,221,244.122,220.34,243.992,219.7z"/>
	</g>
</g>
<g>
	<g>
		<path d="M494.08,337.894L381.494,235.261c-0.947-11.718-5.953-22.611-14.358-31.016c-7.847-7.847-17.69-12.51-27.909-13.993
			l27.874-27.874c1.825,1.472,4.046,2.21,6.268,2.21c2.56,0,5.119-0.977,7.071-2.929l29.674-29.673
			c3.904-3.905,3.904-10.237,0-14.143L295.2,2.928c-3.905-3.905-10.237-3.904-14.143,0l-29.674,29.673
			c-1.875,1.875-2.929,4.419-2.929,7.071c0,2.291,0.789,4.499,2.212,6.267L136.281,160.325c-3.927-3.167-9.691-2.928-13.339,0.719
			l-29.674,29.673c-3.904,3.905-3.904,10.237,0,14.143l114.915,114.914c1.875,1.875,4.419,2.929,7.071,2.929
			c2.652,0,5.195-1.054,7.071-2.929l29.673-29.674c3.648-3.648,3.886-9.412,0.719-13.339l27.874-27.874
			c1.483,10.219,6.146,20.062,13.993,27.908c8.409,8.409,19.306,13.415,31.028,14.36L428.233,403.74
			c8.663,9.504,20.513,14.901,33.369,15.199c0.373,0.009,0.744,0.013,1.116,0.013c12.436-0.001,24.091-4.824,32.919-13.652
			c9.094-9.093,13.938-21.18,13.64-34.036C508.981,358.407,503.584,346.556,494.08,337.894z M288.129,24.142L388.9,124.914
			l-15.531,15.531L272.597,39.673L288.129,24.142z M215.255,298.561L114.482,197.788l15.531-15.531l50.386,50.386l50.387,50.386
			L215.255,298.561z M296.948,204.245l-2.363,2.364l-55.967,55.967l-59.965-59.964l66.887-66.887c3.904-3.905,3.904-10.237,0-14.143
			c-3.905-3.905-10.237-3.905-14.143,0l-66.887,66.887l-14.044-14.044L264.765,60.126l58.403,58.403l-66.886,66.886
			c-3.905,3.905-3.906,10.237-0.001,14.142c1.953,1.953,4.512,2.929,7.071,2.929s5.119-0.977,7.071-2.929l66.887-66.886
			l15.606,15.606l-55.958,55.958C296.955,204.239,296.951,204.242,296.948,204.245z M348.47,264.615
			c-0.222,0.182-0.449,0.354-0.675,0.529c-0.153,0.118-0.302,0.242-0.457,0.357c-0.277,0.207-0.561,0.403-0.845,0.599
			c-0.108,0.075-0.214,0.154-0.322,0.227c-0.309,0.208-0.625,0.405-0.941,0.601c-0.087,0.054-0.173,0.113-0.261,0.166
			c-0.326,0.197-0.658,0.383-0.99,0.567c-0.083,0.046-0.164,0.095-0.248,0.14c-0.336,0.182-0.678,0.353-1.021,0.521
			c-0.083,0.04-0.164,0.084-0.247,0.124c-0.338,0.162-0.681,0.313-1.025,0.462c-0.092,0.04-0.183,0.083-0.276,0.122
			c-0.332,0.139-0.668,0.268-1.004,0.395c-0.11,0.042-0.218,0.087-0.329,0.127c-0.32,0.117-0.645,0.223-0.97,0.328
			c-0.13,0.042-0.259,0.088-0.39,0.129c-0.306,0.095-0.616,0.18-0.925,0.264c-0.154,0.042-0.307,0.088-0.462,0.127
			c-0.289,0.074-0.581,0.139-0.872,0.204c-0.179,0.04-0.357,0.083-0.538,0.12c-0.272,0.056-0.546,0.103-0.821,0.151
			c-0.203,0.036-0.405,0.074-0.608,0.105c-0.256,0.039-0.514,0.07-0.772,0.103c-0.225,0.029-0.45,0.06-0.677,0.083
			c-0.244,0.025-0.489,0.043-0.734,0.062c-0.241,0.019-0.481,0.04-0.723,0.053c-0.239,0.013-0.479,0.019-0.719,0.026
			c-0.313,0.01-0.625,0.023-0.94,0.023c-7.914,0-15.355-3.082-20.951-8.679c-11.552-11.551-11.552-30.348,0-41.9l2.373-2.373
			c5.776-5.77,13.358-8.655,20.941-8.655c7.587,0,15.176,2.889,20.951,8.665c5.597,5.596,8.679,13.037,8.679,20.951
			c0,0.4-0.014,0.798-0.029,1.195c-0.005,0.126-0.007,0.252-0.014,0.378c-0.019,0.351-0.047,0.7-0.077,1.048
			c-0.012,0.141-0.021,0.282-0.036,0.422c-0.033,0.325-0.076,0.648-0.119,0.971c-0.022,0.163-0.041,0.326-0.065,0.488
			c-0.044,0.295-0.099,0.588-0.152,0.881c-0.034,0.186-0.065,0.373-0.102,0.558c-0.054,0.263-0.116,0.524-0.176,0.785
			c-0.049,0.212-0.095,0.424-0.148,0.634c-0.059,0.229-0.125,0.456-0.189,0.684c-0.067,0.237-0.13,0.476-0.203,0.711
			c-0.061,0.198-0.129,0.393-0.194,0.589c-0.087,0.26-0.17,0.521-0.264,0.779c-0.061,0.169-0.129,0.335-0.194,0.502
			c-0.107,0.279-0.213,0.56-0.329,0.836c-0.06,0.145-0.127,0.286-0.19,0.43c-0.129,0.294-0.257,0.588-0.396,0.877
			c-0.06,0.127-0.127,0.251-0.19,0.377c-0.149,0.3-0.298,0.601-0.457,0.896c-0.064,0.118-0.133,0.233-0.199,0.35
			c-0.167,0.299-0.334,0.598-0.511,0.892c-0.069,0.114-0.144,0.224-0.214,0.337c-0.181,0.291-0.363,0.583-0.555,0.869
			c-0.083,0.123-0.172,0.243-0.257,0.365c-0.188,0.271-0.375,0.542-0.572,0.807c-0.108,0.146-0.225,0.286-0.336,0.43
			c-0.182,0.235-0.362,0.473-0.552,0.703c-0.16,0.194-0.329,0.382-0.494,0.572c-0.152,0.175-0.299,0.354-0.456,0.527
			c-0.306,0.337-0.622,0.667-0.944,0.991c-0.022,0.022-0.042,0.046-0.064,0.068l-2.363,2.364c-0.348,0.347-0.702,0.685-1.063,1.013
			c-0.124,0.112-0.253,0.217-0.379,0.327C348.95,264.204,348.713,264.415,348.47,264.615z M481.497,391.157
			c-5.191,5.19-12.093,7.944-19.432,7.787c-7.339-0.17-14.104-3.251-19.05-8.677l-93.808-102.915c0.17-0.073,0.335-0.156,0.504-0.23
			c0.503-0.222,1.006-0.447,1.501-0.686c0.211-0.102,0.418-0.211,0.628-0.316c0.496-0.248,0.991-0.498,1.479-0.763
			c0.208-0.113,0.413-0.235,0.62-0.351c0.48-0.27,0.96-0.54,1.432-0.827c0.217-0.132,0.429-0.273,0.645-0.409
			c0.453-0.285,0.907-0.569,1.352-0.869c0.237-0.16,0.467-0.331,0.702-0.495c0.414-0.29,0.83-0.578,1.237-0.881
			c0.271-0.203,0.535-0.418,0.802-0.627c0.361-0.282,0.726-0.558,1.08-0.85c0.339-0.28,0.669-0.575,1.001-0.865
			c0.273-0.237,0.551-0.467,0.82-0.711c0.592-0.538,1.174-1.091,1.743-1.66c0.006-0.006,0.012-0.012,0.018-0.018l2.363-2.363h-0.001
			c0.577-0.577,1.137-1.165,1.682-1.765c0.208-0.229,0.403-0.467,0.606-0.7c0.327-0.374,0.658-0.745,0.973-1.127
			c0.256-0.31,0.496-0.63,0.744-0.946c0.246-0.313,0.498-0.622,0.735-0.941c0.271-0.363,0.526-0.735,0.787-1.105
			c0.197-0.28,0.4-0.556,0.591-0.839c0.272-0.403,0.528-0.814,0.787-1.224c0.164-0.259,0.333-0.514,0.492-0.775
			c0.261-0.431,0.507-0.869,0.754-1.307c0.141-0.25,0.288-0.497,0.425-0.75c0.243-0.448,0.471-0.903,0.699-1.357
			c0.126-0.251,0.257-0.5,0.379-0.752c0.221-0.458,0.427-0.922,0.633-1.385c0.089-0.201,0.186-0.397,0.273-0.598l102.911,93.813
			c0,0,0,0,0.001,0.001c5.425,4.945,8.507,11.711,8.677,19.05C489.454,379.065,486.688,385.966,481.497,391.157z"/>
	</g>
</g>
<g>
</g>
<g>
</g>
<g>
</g>
<g>
</g>
<g>
</g>
<g>
</g>
<g>
</g>
<g>
</g>
<g>
</g>
<g>
</g>
<g>
</g>
<g>
</g>
<g>
</g>
<g>
</g>
<g>
</g>
</svg>
