<?xml version="1.0" encoding="iso-8859-1"?>
<!-- Generator: Adobe Illustrator 19.0.0, SVG Export Plug-In . SVG Version: 6.00 Build 0)  -->
<svg fill="#614b33" version="1.1" id="Capa_1" xmlns="http://www.w3.org/2000/svg" xmlns:xlink="http://www.w3.org/1999/xlink" x="0px" y="0px"
	 viewBox="0 0 496 496" style="enable-background:new 0 0 496 496;" xml:space="preserve">
<g>
	<g>
		<g>
			<path d="M472,208v-32h-16V88c0-13.232-10.768-24-24-24H331.312l-50.344-50.344C272.168,4.848,260.456,0,248,0
				s-24.168,4.848-32.968,13.656L164.688,64H64c-13.232,0-24,10.768-24,24v88H24v32H0v224v8v56h496v-56v-8V208H472z M424,80h8
				c4.408,0,8,3.592,8,8v84.688l-16-16V80z M392,80h16v60.688l-16-16V80z M376,80v28.688L347.312,80H376z M120,80h28.688
				L120,108.688V80z M88,80h16v44.688l-16,16V80z M226.344,24.968c11.568-11.568,31.744-11.568,43.312,0L420.688,176h-33.376
				L248,36.688L108.688,176H75.312L226.344,24.968z M248,136c-35.288,0-64,28.712-64,64v8h-16v-32h-36.688L248,59.312L364.688,176
				H328v32h-16v-8C312,164.712,283.288,136,248,136z M248,168c-17.648,0-32,14.352-32,32v71.6c-5.832,2.912-11.2,6.576-16,10.888
				V200c0-26.472,21.528-48,48-48s48,21.528,48,48v82.488c-4.8-4.312-10.168-7.984-16-10.888V200C280,182.352,265.648,168,248,168z
				 M264,200v65.856c-5.152-1.176-10.496-1.856-16-1.856c-5.504,0-10.848,0.68-16,1.856V200c0-8.824,7.176-16,16-16
				C256.824,184,264,191.176,264,200z M248,280c28.168,0,51.536,20.896,55.432,48H192.568C196.464,300.896,219.832,280,248,280z
				 M56,88c0-4.408,3.592-8,8-8h8v76.688l-16,16V88z M40,192h112v16H40V192z M16,224h168v79.168c-5.08,9.856-8,21-8,32.832v8v56h16
				v-56h16v16h16v-16h16v16h16v-16h16v16h16v-16h16v88H192v-16h-16v16h-32v-64H56v64H16V224z M128,384v48H72v-48H128z M480,480H16
				v-32h464V480z M368,432v-48h56v48H368z M480,432h-40v-64h-88v64h-32v-88v-8c0-11.832-2.92-22.976-8-32.832V224h112v-16h-80v-16
				h112v16h-16v16h40V432z"/>
			<path d="M88,240H40v48h48V240z M72,272H56v-16h16V272z"/>
			<path d="M160,240h-48v48h48V240z M144,272h-16v-16h16V272z"/>
			<path d="M88,304H40v48h48V304z M72,336H56v-16h16V336z"/>
			<path d="M160,304h-48v48h48V304z M144,336h-16v-16h16V336z"/>
			<path d="M336,288h48v-48h-48V288z M352,256h16v16h-16V256z"/>
			<path d="M408,288h48v-48h-48V288z M424,256h16v16h-16V256z"/>
			<path d="M336,352h48v-48h-48V352z M352,320h16v16h-16V320z"/>
			<path d="M408,352h48v-48h-48V352z M424,320h16v16h-16V320z"/>
		</g>
	</g>
</g>
<g>
</g>
<g>
</g>
<g>
</g>
<g>
</g>
<g>
</g>
<g>
</g>
<g>
</g>
<g>
</g>
<g>
</g>
<g>
</g>
<g>
</g>
<g>
</g>
<g>
</g>
<g>
</g>
<g>
</g>
</svg>
