<?xml version="1.0" encoding="iso-8859-1"?>
<!-- Generator: Adobe Illustrator 19.0.0, SVG Export Plug-In . SVG Version: 6.00 Build 0)  -->
<svg fill="#368aaf" version="1.1" id="Capa_1" xmlns="http://www.w3.org/2000/svg" xmlns:xlink="http://www.w3.org/1999/xlink" x="0px" y="0px"
	 viewBox="0 0 512 512" style="enable-background:new 0 0 512 512;" xml:space="preserve">
<g>
	<g>
		<g>
			<path d="M489.813,497.135l-64-149.333c-1.688-3.927-5.542-6.469-9.813-6.469h-60.131
				c36.915-50.365,70.798-112.298,70.798-170.667C426.667,76.563,350.104,0,256,0S85.333,76.563,85.333,170.667
				c0,58.368,33.883,120.302,70.798,170.667H96c-4.271,0-8.125,2.542-9.813,6.469l-64,149.333
				c-1.396,3.292-1.063,7.073,0.917,10.073C25.063,510.198,28.417,512,32,512h448c3.583,0,6.938-1.802,8.896-4.792
				C490.875,504.208,491.208,500.427,489.813,497.135z M106.667,170.667c0-82.344,67-149.333,149.333-149.333
				s149.333,66.99,149.333,149.333c0,101.667-118.667,222.5-149.333,252.01C225.333,393.167,106.667,272.333,106.667,170.667z
				 M48.167,490.667l54.875-128h69.385c37.378,46.872,73.311,79.77,76.427,82.583c2.042,1.833,4.583,2.75,7.146,2.75
				s5.104-0.917,7.146-2.75c3.116-2.814,39.049-35.711,76.427-82.583h69.385l54.875,128H48.167z"/>
			<path d="M341.333,170.667c0-47.052-38.271-85.333-85.333-85.333s-85.333,38.281-85.333,85.333
				C170.667,217.719,208.938,256,256,256S341.333,217.719,341.333,170.667z M192,170.667c0-35.292,28.708-64,64-64s64,28.708,64,64
				c0,35.292-28.708,64-64,64S192,205.958,192,170.667z"/>
		</g>
	</g>
</g>
<g>
</g>
<g>
</g>
<g>
</g>
<g>
</g>
<g>
</g>
<g>
</g>
<g>
</g>
<g>
</g>
<g>
</g>
<g>
</g>
<g>
</g>
<g>
</g>
<g>
</g>
<g>
</g>
<g>
</g>
</svg>
