<?xml version="1.0" encoding="iso-8859-1"?>
<!-- Generator: Adobe Illustrator 19.0.0, SVG Export Plug-In . SVG Version: 6.00 Build 0)  -->
<svg fill="#614b33" version="1.1" id="Capa_1" xmlns="http://www.w3.org/2000/svg" xmlns:xlink="http://www.w3.org/1999/xlink" x="0px" y="0px"
	 viewBox="0 0 511.999 511.999" style="enable-background:new 0 0 511.999 511.999;" xml:space="preserve">
<g>
	<g>
		<g>
			<path d="M511.988,246.101c-0.001-0.036-0.003-0.072-0.003-0.108c-0.006-0.142-0.005-0.283-0.016-0.425
				c-0.005-0.068-0.012-0.137-0.018-0.205c-0.011-0.12-0.032-0.237-0.048-0.356c-0.002-0.013-0.004-0.025-0.005-0.038
				c-0.017-0.117-0.026-0.235-0.048-0.353c-0.012-0.073-0.025-0.145-0.04-0.219c-0.027-0.141-0.065-0.278-0.098-0.417
				c-0.026-0.106-0.048-0.214-0.077-0.319c-0.019-0.067-0.037-0.136-0.058-0.204c-0.042-0.143-0.093-0.281-0.142-0.421
				c-0.038-0.108-0.074-0.218-0.116-0.326c-0.022-0.057-0.043-0.114-0.066-0.172c-0.054-0.13-0.113-0.256-0.172-0.384
				c-0.058-0.125-0.116-0.25-0.179-0.373c-0.018-0.037-0.033-0.076-0.053-0.113l-0.043-0.083c-0.009-0.016-0.017-0.032-0.025-0.048
				l-63.6-120.993c11.742-6.526,18.037-20.437,14.406-33.988c-3.51-13.095-15.422-22.239-28.966-22.239
				c-2.611,0-5.222,0.345-7.761,1.024c-0.004,0.001-0.007,0.001-0.011,0.002l-143.686,38.415l-1.432-29.171
				c4.025-5.127,6.434-11.579,6.434-18.588c0-16.634-13.532-30.166-30.166-30.166c-16.634,0-30.166,13.532-30.166,30.166
				c0,7.008,2.408,13.459,6.432,18.586l-2.101,42.809L71.628,159.78c-0.001,0-0.003,0-0.004,0.001h-0.001
				c-7.74,2.074-14.209,7.038-18.217,13.979c-4.006,6.939-5.07,15.024-2.996,22.764c2.154,8.045,7.488,14.587,14.416,18.446
				L1.217,335.974c-0.009,0.016-0.017,0.032-0.025,0.048l-0.043,0.083c-0.02,0.038-0.035,0.078-0.055,0.116
				c-0.062,0.121-0.118,0.243-0.175,0.366c-0.06,0.129-0.12,0.256-0.174,0.387c-0.024,0.059-0.045,0.118-0.067,0.177
				c-0.041,0.105-0.076,0.212-0.113,0.319c-0.05,0.141-0.101,0.28-0.144,0.424c-0.02,0.069-0.04,0.138-0.06,0.207
				c-0.027,0.103-0.049,0.208-0.074,0.313c-0.033,0.14-0.07,0.278-0.099,0.421c-0.015,0.073-0.028,0.147-0.041,0.222
				c-0.02,0.112-0.03,0.226-0.046,0.339c-0.002,0.017-0.004,0.034-0.006,0.051c-0.016,0.118-0.037,0.234-0.048,0.354
				c-0.007,0.069-0.014,0.139-0.019,0.207c-0.011,0.137-0.01,0.273-0.015,0.409c-0.001,0.041-0.003,0.082-0.004,0.122
				c0,0.073-0.009,0.145-0.009,0.218c0,0.014,0.002,0.026,0.002,0.04c0,0.053,0,0.105,0.001,0.158
				c0.003,0.178,0.02,0.355,0.032,0.533c0.002,0.018,0.002,0.035,0.004,0.053c0.007,0.09,0.008,0.181,0.017,0.268
				c0.003,0.031,0.007,0.061,0.011,0.093c0.021,0.186,0.057,0.371,0.088,0.557c0.023,0.132,0.042,0.266,0.07,0.396
				c0.035,0.163,0.081,0.325,0.125,0.487c0.043,0.162,0.084,0.326,0.135,0.485c0.041,0.126,0.092,0.251,0.139,0.376
				c0.069,0.191,0.139,0.38,0.22,0.565c0.046,0.104,0.1,0.207,0.149,0.31c0.053,0.108,0.102,0.22,0.157,0.326
				c0.017,0.03,0.028,0.064,0.045,0.094c0.03,0.057,0.066,0.109,0.098,0.166c0.017,0.03,0.03,0.062,0.048,0.092
				c16.047,27.795,45.953,45.062,78.049,45.062s62.002-17.267,78.049-45.062c0.018-0.03,0.03-0.061,0.047-0.092
				c0.031-0.057,0.067-0.109,0.098-0.166c0.017-0.03,0.029-0.064,0.045-0.094c0.057-0.107,0.105-0.218,0.158-0.327
				c0.05-0.104,0.104-0.205,0.148-0.31c0.082-0.185,0.151-0.375,0.222-0.565c0.046-0.125,0.097-0.249,0.137-0.375
				c0.052-0.16,0.093-0.324,0.136-0.487c0.043-0.161,0.09-0.322,0.125-0.485c0.028-0.131,0.047-0.266,0.069-0.398
				c0.032-0.185,0.066-0.369,0.088-0.555c0.004-0.031,0.008-0.061,0.011-0.093c0.01-0.088,0.01-0.179,0.018-0.268
				c0.001-0.018,0.002-0.036,0.003-0.055c0.013-0.177,0.029-0.354,0.032-0.531c0.002-0.053,0.002-0.105,0.002-0.158
				c0-0.014,0.002-0.026,0.002-0.04c0-0.073-0.01-0.145-0.012-0.219c0-0.04-0.002-0.081-0.004-0.121
				c-0.004-0.137-0.004-0.273-0.014-0.41c-0.006-0.069-0.012-0.138-0.02-0.207c-0.011-0.12-0.031-0.236-0.047-0.354
				c-0.002-0.017-0.004-0.032-0.007-0.049c-0.016-0.114-0.026-0.229-0.046-0.342c-0.012-0.074-0.026-0.147-0.041-0.221
				c-0.027-0.143-0.064-0.28-0.098-0.42c-0.025-0.105-0.047-0.21-0.076-0.314c-0.019-0.069-0.037-0.139-0.059-0.207
				c-0.042-0.144-0.094-0.282-0.143-0.423c-0.037-0.107-0.072-0.215-0.113-0.321c-0.023-0.059-0.044-0.117-0.068-0.176
				c-0.053-0.131-0.113-0.258-0.173-0.386c-0.057-0.123-0.114-0.246-0.176-0.367c-0.02-0.039-0.034-0.078-0.054-0.116l-0.043-0.083
				c-0.01-0.016-0.018-0.032-0.025-0.048L93.957,214.982c4.548-2.527,8.273-6.163,10.928-10.457
				c12.448,1.765,25.965,2.649,40.316,2.649c25.016,0,52.5-2.665,80.941-7.838l-9.174,186.829H216
				c-16.543,0-30.002,13.459-30.002,30.001c0,3.506,0.61,6.869,1.721,9.999h-18.941c-16.543,0-30,13.459-30,30.002v9.999H83.049
				c-5.523,0-10,4.477-10,10c0,5.522,4.477,10,10,10h345.902c5.523,0,10-4.478,10-10c0-5.523-4.477-10-10-10h-55.73v-9.999
				c0-16.543-13.457-30.002-29.999-30.002H324.28c1.11-3.13,1.721-6.495,1.721-10.001c0-16.541-13.457-29.999-30-29.999h-0.971
				l-9.86-200.883c52.843-15.591,99.632-37.744,131.589-62.295l-62.323,118.554c-0.007,0.013-0.014,0.026-0.02,0.039l-0.047,0.088
				c-0.021,0.039-0.035,0.08-0.055,0.119c-0.062,0.121-0.119,0.243-0.175,0.365c-0.059,0.128-0.119,0.254-0.173,0.385
				c-0.023,0.059-0.045,0.118-0.068,0.178c-0.041,0.106-0.076,0.213-0.113,0.32c-0.049,0.14-0.1,0.278-0.143,0.422
				c-0.021,0.069-0.04,0.139-0.06,0.209c-0.028,0.104-0.05,0.208-0.075,0.313c-0.033,0.14-0.07,0.277-0.098,0.419
				c-0.015,0.074-0.029,0.148-0.041,0.222c-0.02,0.113-0.03,0.227-0.046,0.34c-0.003,0.018-0.005,0.035-0.007,0.052
				c-0.016,0.118-0.036,0.234-0.047,0.353c-0.008,0.069-0.014,0.139-0.02,0.208c-0.01,0.136-0.01,0.271-0.014,0.407
				c-0.002,0.042-0.004,0.085-0.005,0.127c-0.001,0.072-0.011,0.144-0.011,0.216c0,0.014,0.002,0.025,0.002,0.039
				c0,0.054,0,0.106,0.002,0.16c0.003,0.177,0.02,0.352,0.032,0.529c0.001,0.02,0.002,0.038,0.003,0.057
				c0.008,0.089,0.008,0.18,0.018,0.268c0.003,0.031,0.008,0.061,0.011,0.093c0.021,0.186,0.056,0.37,0.088,0.555
				c0.022,0.133,0.041,0.268,0.069,0.398c0.035,0.163,0.082,0.324,0.125,0.485c0.043,0.163,0.084,0.327,0.136,0.487
				c0.04,0.126,0.091,0.25,0.137,0.375c0.07,0.191,0.14,0.381,0.222,0.566c0.045,0.104,0.099,0.206,0.148,0.309
				c0.049,0.102,0.094,0.204,0.146,0.304c0.02,0.039,0.036,0.08,0.057,0.118c0.03,0.057,0.066,0.109,0.098,0.165
				c0.017,0.03,0.029,0.062,0.047,0.092c16.047,27.795,45.955,45.062,78.051,45.062c32.097,0,62.003-17.267,78.048-45.062
				c0.018-0.031,0.03-0.063,0.048-0.095c0.031-0.055,0.066-0.106,0.096-0.162c0.02-0.037,0.036-0.076,0.054-0.112
				c0.052-0.1,0.098-0.203,0.147-0.304c0.052-0.106,0.107-0.212,0.153-0.318c0.08-0.182,0.148-0.369,0.217-0.556
				c0.048-0.129,0.1-0.256,0.141-0.386c0.051-0.156,0.091-0.317,0.134-0.477c0.044-0.165,0.091-0.329,0.127-0.495
				c0.027-0.128,0.046-0.259,0.067-0.39c0.033-0.188,0.068-0.375,0.09-0.564c0.004-0.03,0.008-0.061,0.011-0.091
				c0.009-0.088,0.01-0.179,0.017-0.267c0.001-0.015,0.002-0.029,0.002-0.044c0.014-0.182,0.031-0.364,0.035-0.546
				c0-0.052,0-0.105,0-0.156c0-0.014,0.002-0.026,0.002-0.04C511.999,246.246,511.99,246.175,511.988,246.101z M70.727,183.758
				c1.335-2.313,3.49-3.966,6.068-4.658l0.005-0.001c0.856-0.229,1.73-0.345,2.598-0.345c4.511,0,8.479,3.049,9.648,7.415
				c1.427,5.327-1.746,10.821-7.072,12.249c-0.842,0.225-1.701,0.339-2.557,0.343c-0.01,0-0.02-0.002-0.029-0.002
				c-0.017,0-0.033,0.003-0.049,0.003c-4.496-0.016-8.445-3.06-9.611-7.415C69.037,188.767,69.391,186.072,70.727,183.758z
				 M79.389,370.819c-18.533,0-36.125-7.405-49.071-20.062h98.141C115.514,363.413,97.922,370.819,79.389,370.819z M132.223,330.757
				H26.554L79.389,230.25L132.223,330.757z M256,45.833c5.605,0,10.166,4.561,10.166,10.166c0,5.605-4.56,10.166-10.166,10.166
				s-10.166-4.561-10.166-10.166C245.834,50.394,250.395,45.833,256,45.833z M261.401,109.043l-10.945,2.927l1.28-26.111
				c1.395,0.198,2.816,0.307,4.264,0.307s2.869-0.108,4.262-0.307L261.401,109.043z M343.221,446.165c5.514,0,10,4.488,10,10.002
				v9.999H158.777v-9.999c0-5.515,4.486-10.002,10-10.002H343.221z M296,406.165c5.514,0,10,4.487,10,10.001
				c0,5.514-4.486,9.999-10,9.999h-80c-5.516,0-10.002-4.486-10.002-10.001c0-5.514,4.486-9.999,10.002-9.999H296z M236.992,386.164
				l9.373-190.884c6.324-1.395,12.68-2.923,19.047-4.558l9.594,195.442H236.992z M266.071,169.887
				c-56.83,15.22-114.626,20.687-156.935,15.044c-0.17-1.312-0.419-2.626-0.771-3.938c-0.899-3.356-2.357-6.448-4.248-9.198
				l298.572-79.824c-0.262,3.355,0.046,6.768,0.943,10.114c0.421,1.571,0.969,3.081,1.62,4.529
				C372.643,131.927,322.573,154.755,266.071,169.887z M423.95,89.323c1.336-2.313,3.492-3.968,6.072-4.659
				c0.855-0.229,1.73-0.346,2.601-0.346c4.509,0,8.477,3.051,9.647,7.416c1.428,5.326-1.744,10.821-7.072,12.249
				c-0.836,0.224-1.689,0.336-2.538,0.342c-0.017-0.001-0.031-0.004-0.048-0.004c-0.023,0-0.047,0.005-0.07,0.005
				c-4.486-0.025-8.424-3.066-9.59-7.417C422.261,94.33,422.615,91.636,423.95,89.323z M432.612,276.384
				c-18.535-0.001-36.127-7.406-49.073-20.062h98.143C468.737,268.978,451.147,276.384,432.612,276.384z M379.775,236.322
				l52.836-100.509l52.834,100.509H379.775z"/>
			<path d="M54.317,466.166h-0.235c-5.523,0-10,4.477-10,10c0,5.522,4.477,10,10,10h0.235c5.522,0,10-4.478,10-10
				C64.317,470.643,59.84,466.166,54.317,466.166z"/>
			<path d="M457.917,466.166h-0.236c-5.522,0-10,4.477-10,10c0,5.522,4.478,10,10,10h0.236c5.522,0,10-4.478,10-10
				C467.917,470.643,463.439,466.166,457.917,466.166z"/>
		</g>
	</g>
</g>
<g>
</g>
<g>
</g>
<g>
</g>
<g>
</g>
<g>
</g>
<g>
</g>
<g>
</g>
<g>
</g>
<g>
</g>
<g>
</g>
<g>
</g>
<g>
</g>
<g>
</g>
<g>
</g>
<g>
</g>
</svg>
